<svg width="28" height="28" viewBox="0 0 28 28" fill="none" xmlns="http://www.w3.org/2000/svg">
<path d="M8.05004 24.033C9.80004 25.083 11.9 25.6663 14 25.6663C20.4167 25.6663 25.6667 20.4163 25.6667 13.9997C25.6667 7.58301 20.4167 2.33301 14 2.33301C7.58337 2.33301 2.33337 7.58301 2.33337 13.9997C2.33337 16.0997 2.91671 18.083 3.85004 19.833L2.84722 23.69C2.62005 24.5638 3.42879 25.3534 4.29686 25.1053L8.05004 24.033Z" stroke="#20B15A" stroke-width="1.75" stroke-miterlimit="10" stroke-linecap="round" stroke-linejoin="round"/>
<path d="M19.25 17.3232C19.25 17.5122 19.2079 17.7065 19.1186 17.8955C19.0292 18.0845 18.9135 18.263 18.761 18.431C18.5034 18.7145 18.2195 18.9192 17.8987 19.0505C17.5833 19.1817 17.2415 19.25 16.8734 19.25C16.3371 19.25 15.764 19.124 15.1594 18.8667C14.5547 18.6095 13.9501 18.263 13.3507 17.8273C12.746 17.3863 12.1729 16.898 11.6261 16.3572C11.0845 15.8112 10.5955 15.239 10.1591 14.6405C9.72797 14.042 9.38095 13.4435 9.12857 12.8503C8.87619 12.2518 8.75 11.6795 8.75 11.1335C8.75 10.7765 8.81309 10.4353 8.93928 10.1203C9.06547 9.8 9.26527 9.506 9.54394 9.2435C9.88045 8.91275 10.2485 8.75 10.6376 8.75C10.7848 8.75 10.932 8.7815 11.0635 8.8445C11.2002 8.9075 11.3211 9.002 11.4157 9.1385L12.6356 10.8553C12.7302 10.9865 12.7986 11.1072 12.8459 11.2227C12.8932 11.333 12.9195 11.4432 12.9195 11.543C12.9195 11.669 12.8827 11.795 12.8091 11.9157C12.7407 12.0365 12.6408 12.1625 12.5146 12.2885L12.115 12.7032C12.0572 12.761 12.0309 12.8292 12.0309 12.9132C12.0309 12.9552 12.0362 12.992 12.0467 13.034C12.0625 13.076 12.0782 13.1075 12.0888 13.139C12.1834 13.3122 12.3464 13.538 12.5777 13.811C12.8143 14.084 13.0667 14.3622 13.3401 14.6405C13.6241 14.9187 13.8975 15.176 14.1761 15.4122C14.4495 15.6432 14.6756 15.8007 14.8544 15.8952C14.8807 15.9057 14.9122 15.9215 14.949 15.9372C14.9911 15.953 15.0332 15.9582 15.0805 15.9582C15.1699 15.9582 15.2382 15.9267 15.2961 15.869L15.6957 15.4752C15.8271 15.344 15.9533 15.2442 16.0742 15.1812C16.1952 15.1077 16.3161 15.071 16.4475 15.071C16.5474 15.071 16.6526 15.092 16.7683 15.1392C16.884 15.1865 17.0049 15.2547 17.1363 15.344L18.8767 16.5777C19.0134 16.6722 19.108 16.7825 19.1659 16.9137C19.2185 17.045 19.25 17.1762 19.25 17.3232Z" stroke="#20B15A" stroke-width="1.75" stroke-miterlimit="10"/>
</svg>
