<svg width="35" height="35" viewBox="0 0 35 35" fill="none" xmlns="http://www.w3.org/2000/svg">
<rect x="0.232422" y="0.634766" width="33.8624" height="33.8624" rx="16.9312" fill="#F5F5F5"/>
<path d="M17.1825 9.87109C14.3804 9.87109 12.1031 12.1483 12.1031 14.9505V17.397C12.1031 17.9134 11.883 18.7007 11.6206 19.1409L10.647 20.7579C10.046 21.7568 10.4608 22.8658 11.5613 23.2383C15.21 24.4573 19.1465 24.4573 22.7952 23.2383C23.8195 22.8997 24.2682 21.6891 23.7095 20.7579L22.7359 19.1409C22.482 18.7007 22.2619 17.9134 22.2619 17.397V14.9505C22.2619 12.1568 19.9761 9.87109 17.1825 9.87109Z" stroke="#0A0A0B" stroke-width="1.26984" stroke-miterlimit="10" stroke-linecap="round"/>
<path d="M18.7475 10.1174C18.4851 10.0413 18.2142 9.982 17.9348 9.94814C17.1221 9.84655 16.3433 9.90581 15.6152 10.1174C15.8607 9.49099 16.4703 9.05078 17.1814 9.05078C17.8925 9.05078 18.502 9.49099 18.7475 10.1174Z" stroke="#0A0A0B" stroke-width="1.26984" stroke-miterlimit="10" stroke-linecap="round" stroke-linejoin="round"/>
<path d="M19.72 23.5449C19.72 24.9417 18.5771 26.0846 17.1803 26.0846C16.4861 26.0846 15.8427 25.7968 15.3856 25.3396C14.9285 24.8825 14.6406 24.2391 14.6406 23.5449" stroke="#0A0A0B" stroke-width="1.26984" stroke-miterlimit="10"/>
</svg>
