<svg width="21" height="21" viewBox="0 0 21 21" fill="none" xmlns="http://www.w3.org/2000/svg">
<path d="M2.93359 6.62891L10.4087 10.9548L17.833 6.65428" stroke="#0A0A0B" stroke-width="1.26984" stroke-linecap="round" stroke-linejoin="round"/>
<path d="M10.4082 18.6236V10.9453" stroke="#0A0A0B" stroke-width="1.26984" stroke-linecap="round" stroke-linejoin="round"/>
<path d="M8.65649 2.43174L4.13586 4.94605C3.11152 5.51325 2.27344 6.93545 2.27344 8.10371V12.8868C2.27344 14.0551 3.11152 15.4773 4.13586 16.0445L8.65649 18.5588C9.62157 19.0921 11.2046 19.0921 12.1697 18.5588L16.6904 16.0445C17.7147 15.4773 18.5528 14.0551 18.5528 12.8868V8.10371C18.5528 6.93545 17.7147 5.51325 16.6904 4.94605L12.1697 2.43174C11.1962 1.88994 9.62157 1.88994 8.65649 2.43174Z" stroke="#0A0A0B" stroke-width="1.26984" stroke-linecap="round" stroke-linejoin="round"/>
<path d="M14.6413 11.5403V8.44192L6.60742 3.80273" stroke="#0A0A0B" stroke-width="1.26984" stroke-linecap="round" stroke-linejoin="round"/>
</svg>
