<svg width="21" height="21" viewBox="0 0 21 21" fill="none" xmlns="http://www.w3.org/2000/svg">
<path d="M18.8735 7.15364V3.73353C18.8735 2.3875 18.3317 1.8457 16.9857 1.8457H13.5656C12.2195 1.8457 11.6777 2.3875 11.6777 3.73353V7.15364C11.6777 8.49967 12.2195 9.04147 13.5656 9.04147H16.9857C18.3317 9.04147 18.8735 8.49967 18.8735 7.15364Z" stroke="#0A0A0B" stroke-width="1.26984" stroke-linecap="round" stroke-linejoin="round"/>
<path d="M9.13913 7.36528V3.52189C9.13913 2.32824 8.59733 1.8457 7.2513 1.8457H3.83119C2.48516 1.8457 1.94336 2.32824 1.94336 3.52189V7.35681C1.94336 8.55893 2.48516 9.033 3.83119 9.033H7.2513C8.59733 9.04147 9.13913 8.55893 9.13913 7.36528Z" stroke="#0A0A0B" stroke-width="1.26984" stroke-linecap="round" stroke-linejoin="round"/>
<path d="M9.13913 16.888V13.4679C9.13913 12.1219 8.59733 11.5801 7.2513 11.5801H3.83119C2.48516 11.5801 1.94336 12.1219 1.94336 13.4679V16.888C1.94336 18.234 2.48516 18.7758 3.83119 18.7758H7.2513C8.59733 18.7758 9.13913 18.234 9.13913 16.888Z" stroke="#0A0A0B" stroke-width="1.26984" stroke-linecap="round" stroke-linejoin="round"/>
<path d="M12.9492 13.2734H18.0286" stroke="#0A0A0B" stroke-width="1.26984" stroke-linecap="round"/>
<path d="M12.9492 16.6602H18.0286" stroke="#0A0A0B" stroke-width="1.26984" stroke-linecap="round"/>
</svg>
