<svg width="21" height="22" viewBox="0 0 21 22" fill="none" xmlns="http://www.w3.org/2000/svg">
<path d="M15.5208 12.3378C15.1652 12.6849 14.9621 13.1843 15.0129 13.7177C15.089 14.632 15.9271 15.3007 16.8414 15.3007H18.4499V16.3081C18.4499 18.0605 17.0192 19.4912 15.2668 19.4912H6.71656C7.4192 18.8732 7.86788 17.9674 7.86788 16.9515C7.86788 15.0806 6.35254 13.5653 4.48164 13.5653C3.68587 13.5653 2.94936 13.8447 2.36523 14.3103V10.6108C2.36523 8.85843 3.79592 7.42773 5.5483 7.42773H15.2668C17.0192 7.42773 18.4499 8.85843 18.4499 10.6108V11.8299H16.7398C16.2658 11.8299 15.834 12.0161 15.5208 12.3378Z" stroke="#0A0A0B" stroke-width="1.26984" stroke-linecap="round" stroke-linejoin="round"/>
<path d="M2.36523 10.6107V7.50384C2.36523 6.49644 2.98322 5.59905 3.9229 5.24349L10.6446 2.70381C11.6943 2.31439 12.8203 3.08479 12.8203 4.21071V7.42763" stroke="#0A0A0B" stroke-width="1.26984" stroke-linecap="round" stroke-linejoin="round"/>
<path d="M19.348 12.6935V14.4375C19.348 14.9031 18.9755 15.284 18.5014 15.301H16.8422C15.9279 15.301 15.0898 14.6322 15.0136 13.7179C14.9628 13.1846 15.166 12.6851 15.5215 12.338C15.8347 12.0163 16.2665 11.8301 16.7406 11.8301H18.5014C18.9755 11.847 19.348 12.2279 19.348 12.6935Z" stroke="#0A0A0B" stroke-width="1.26984" stroke-linecap="round" stroke-linejoin="round"/>
<path d="M6.17578 11.0254H12.1017" stroke="#0A0A0B" stroke-width="1.26984" stroke-linecap="round" stroke-linejoin="round"/>
<path d="M7.87014 16.9507C7.87014 17.9666 7.42147 18.8724 6.71882 19.4904C6.11776 20.0152 5.33893 20.3369 4.4839 20.3369C2.613 20.3369 1.09766 18.8216 1.09766 16.9507C1.09766 15.884 1.58866 14.9274 2.3675 14.3094C2.95162 13.8438 3.68813 13.5645 4.4839 13.5645C6.3548 13.5645 7.87014 15.0798 7.87014 16.9507Z" stroke="#0A0A0B" stroke-width="1.26984" stroke-miterlimit="10" stroke-linecap="round" stroke-linejoin="round"/>
<path d="M4.69492 15.8926V17.1624L3.63672 17.7973" stroke="#292D32" stroke-width="1.26984" stroke-miterlimit="10" stroke-linecap="round" stroke-linejoin="round"/>
</svg>
