<svg width="65" height="66" viewBox="0 0 65 66" fill="none" xmlns="http://www.w3.org/2000/svg">
<path d="M27.6484 18.2832C29.5965 18.2832 31.1758 16.7039 31.1758 14.7559C31.1758 12.8078 29.5965 11.2285 27.6484 11.2285C25.7003 11.2285 24.1211 12.8078 24.1211 14.7559C24.1211 16.7039 25.7003 18.2832 27.6484 18.2832Z" stroke="#969EBA" stroke-width="1.26984" stroke-linejoin="round"/>
<path d="M34.7031 4.17383H27.6484C18.8301 4.17383 15.3027 7.70116 15.3027 16.5195V27.1015C15.3027 35.9199 18.8301 39.4472 27.6484 39.4472H38.2304C47.0488 39.4472 50.5761 35.9199 50.5761 27.1015V18.2832" stroke="#969EBA" stroke-width="1.26984" stroke-linejoin="round"/>
<path d="M39.5527 9.46484H49.2529" stroke="#969EBA" stroke-width="1.26984"/>
<path d="M44.4023 14.3154V4.61523" stroke="#969EBA" stroke-width="1.26984"/>
<path d="M16.4844 34.0666L25.1793 28.2288C26.5726 27.2941 28.5831 27.3999 29.8353 28.4758L30.4174 28.9872C31.793 30.1689 34.0152 30.1689 35.3909 28.9872L42.7278 22.6909C44.1034 21.5093 46.3256 21.5093 47.7013 22.6909L50.5761 25.1601" stroke="#969EBA" stroke-width="1.26984" stroke-linejoin="round"/>
<path d="M6.52168 51.9463V52.8233H2.93056V55.6085H5.84612V56.4855H2.93056V60.207H1.85205V51.9463H6.52168ZM10.6569 60.3137C10.0485 60.3137 9.49538 60.1754 8.9976 59.8989C8.50772 59.6223 8.12056 59.2312 7.83612 58.7255C7.55958 58.212 7.4213 57.6194 7.4213 56.9478C7.4213 56.2841 7.56353 55.6994 7.84797 55.1937C8.14032 54.6801 8.53538 54.289 9.03316 54.0204C9.53093 53.7438 10.088 53.6055 10.7043 53.6055C11.3206 53.6055 11.8776 53.7438 12.3754 54.0204C12.8732 54.289 13.2643 54.6762 13.5487 55.1818C13.8411 55.6875 13.9872 56.2762 13.9872 56.9478C13.9872 57.6194 13.8371 58.212 13.5369 58.7255C13.2445 59.2312 12.8455 59.6223 12.3398 59.8989C11.8341 60.1754 11.2732 60.3137 10.6569 60.3137ZM10.6569 59.3655C11.044 59.3655 11.4075 59.2747 11.7472 59.093C12.087 58.9112 12.3596 58.6386 12.565 58.2752C12.7783 57.9117 12.885 57.4693 12.885 56.9478C12.885 56.4263 12.7823 55.9838 12.5769 55.6204C12.3714 55.2569 12.1028 54.9883 11.7709 54.8144C11.4391 54.6327 11.0796 54.5418 10.6924 54.5418C10.2974 54.5418 9.9339 54.6327 9.60205 54.8144C9.27809 54.9883 9.01735 55.2569 8.81982 55.6204C8.62229 55.9838 8.52353 56.4263 8.52353 56.9478C8.52353 57.4772 8.61834 57.9236 8.80797 58.287C9.0055 58.6505 9.26624 58.9231 9.59019 59.1048C9.91414 59.2786 10.2697 59.3655 10.6569 59.3655ZM16.7208 54.6011V58.4293C16.7208 58.7453 16.788 58.9705 16.9223 59.1048C17.0566 59.2312 17.2897 59.2944 17.6216 59.2944H18.4157V60.207H17.4438C16.8433 60.207 16.3929 60.0688 16.0927 59.7922C15.7924 59.5157 15.6423 59.0614 15.6423 58.4293V54.6011H14.8008V53.7122H15.6423V52.0767H16.7208V53.7122H18.4157V54.6011H16.7208ZM22.555 60.3137C21.9466 60.3137 21.3935 60.1754 20.8957 59.8989C20.4059 59.6223 20.0187 59.2312 19.7343 58.7255C19.4577 58.212 19.3195 57.6194 19.3195 56.9478C19.3195 56.2841 19.4617 55.6994 19.7461 55.1937C20.0385 54.6801 20.4335 54.289 20.9313 54.0204C21.4291 53.7438 21.9861 53.6055 22.6024 53.6055C23.2187 53.6055 23.7757 53.7438 24.2735 54.0204C24.7713 54.289 25.1624 54.6762 25.4469 55.1818C25.7392 55.6875 25.8854 56.2762 25.8854 56.9478C25.8854 57.6194 25.7353 58.212 25.435 58.7255C25.1427 59.2312 24.7436 59.6223 24.238 59.8989C23.7323 60.1754 23.1713 60.3137 22.555 60.3137ZM22.555 59.3655C22.9422 59.3655 23.3056 59.2747 23.6454 59.093C23.9851 58.9112 24.2577 58.6386 24.4632 58.2752C24.6765 57.9117 24.7832 57.4693 24.7832 56.9478C24.7832 56.4263 24.6804 55.9838 24.475 55.6204C24.2696 55.2569 24.0009 54.9883 23.6691 54.8144C23.3372 54.6327 22.9777 54.5418 22.5906 54.5418C22.1955 54.5418 21.832 54.6327 21.5002 54.8144C21.1762 54.9883 20.9155 55.2569 20.718 55.6204C20.5204 55.9838 20.4217 56.4263 20.4217 56.9478C20.4217 57.4772 20.5165 57.9236 20.7061 58.287C20.9036 58.6505 21.1644 58.9231 21.4883 59.1048C21.8123 59.2786 22.1678 59.3655 22.555 59.3655ZM30.0602 56.0707C30.0602 55.2648 30.2419 54.5418 30.6054 53.9018C30.9688 53.2539 31.4627 52.7483 32.0869 52.3848C32.719 52.0214 33.4182 51.8396 34.1846 51.8396C35.0854 51.8396 35.8716 52.0569 36.5432 52.4915C37.2148 52.926 37.7046 53.5423 38.0128 54.3404H36.7209C36.4918 53.8426 36.1599 53.4594 35.7254 53.1907C35.2987 52.9221 34.7851 52.7878 34.1846 52.7878C33.6078 52.7878 33.0903 52.9221 32.632 53.1907C32.1738 53.4594 31.8143 53.8426 31.5535 54.3404C31.2928 54.8302 31.1624 55.407 31.1624 56.0707C31.1624 56.7265 31.2928 57.3033 31.5535 57.8011C31.8143 58.291 32.1738 58.6702 32.632 58.9389C33.0903 59.2075 33.6078 59.3418 34.1846 59.3418C34.7851 59.3418 35.2987 59.2115 35.7254 58.9507C36.1599 58.6821 36.4918 58.2989 36.7209 57.8011H38.0128C37.7046 58.5912 37.2148 59.2036 36.5432 59.6381C35.8716 60.0648 35.0854 60.2781 34.1846 60.2781C33.4182 60.2781 32.719 60.1004 32.0869 59.7448C31.4627 59.3814 30.9688 58.8796 30.6054 58.2396C30.2419 57.5996 30.0602 56.8767 30.0602 56.0707ZM42.4508 60.3137C41.8424 60.3137 41.2894 60.1754 40.7916 59.8989C40.3017 59.6223 39.9145 59.2312 39.6301 58.7255C39.3536 58.212 39.2153 57.6194 39.2153 56.9478C39.2153 56.2841 39.3575 55.6994 39.642 55.1937C39.9343 54.6801 40.3294 54.289 40.8271 54.0204C41.3249 53.7438 41.882 53.6055 42.4982 53.6055C43.1145 53.6055 43.6716 53.7438 44.1694 54.0204C44.6671 54.289 45.0582 54.6762 45.3427 55.1818C45.635 55.6875 45.7812 56.2762 45.7812 56.9478C45.7812 57.6194 45.6311 58.212 45.3308 58.7255C45.0385 59.2312 44.6395 59.6223 44.1338 59.8989C43.6281 60.1754 43.0671 60.3137 42.4508 60.3137ZM42.4508 59.3655C42.838 59.3655 43.2015 59.2747 43.5412 59.093C43.881 58.9112 44.1536 58.6386 44.359 58.2752C44.5723 57.9117 44.679 57.4693 44.679 56.9478C44.679 56.4263 44.5763 55.9838 44.3708 55.6204C44.1654 55.2569 43.8968 54.9883 43.5649 54.8144C43.2331 54.6327 42.8736 54.5418 42.4864 54.5418C42.0913 54.5418 41.7279 54.6327 41.396 54.8144C41.0721 54.9883 40.8113 55.2569 40.6138 55.6204C40.4163 55.9838 40.3175 56.4263 40.3175 56.9478C40.3175 57.4772 40.4123 57.9236 40.602 58.287C40.7995 58.6505 41.0602 58.9231 41.3842 59.1048C41.7081 59.2786 42.0637 59.3655 42.4508 59.3655ZM49.617 59.2115L51.6319 53.7122H52.7815L50.2333 60.207H48.977L46.4289 53.7122H47.5904L49.617 59.2115ZM59.7687 56.7107C59.7687 56.9162 59.7569 57.1335 59.7332 57.3626H54.542C54.5815 58.0026 54.7988 58.5043 55.1939 58.8678C55.5969 59.2233 56.0828 59.4011 56.6517 59.4011C57.1178 59.4011 57.505 59.2944 57.8132 59.0811C58.1292 58.8599 58.3504 58.5675 58.4769 58.2041H59.6383C59.4645 58.8283 59.1169 59.3379 58.5954 59.733C58.0739 60.1201 57.426 60.3137 56.6517 60.3137C56.0354 60.3137 55.4823 60.1754 54.9924 59.8989C54.5104 59.6223 54.1312 59.2312 53.8546 58.7255C53.5781 58.212 53.4398 57.6194 53.4398 56.9478C53.4398 56.2762 53.5741 55.6875 53.8428 55.1818C54.1114 54.6762 54.4867 54.289 54.9687 54.0204C55.4586 53.7438 56.0196 53.6055 56.6517 53.6055C57.268 53.6055 57.8132 53.7399 58.2872 54.0085C58.7613 54.2772 59.1248 54.6485 59.3776 55.1226C59.6383 55.5888 59.7687 56.1181 59.7687 56.7107ZM58.6546 56.4855C58.6546 56.0747 58.5638 55.7231 58.382 55.4307C58.2003 55.1305 57.9514 54.9053 57.6354 54.7552C57.3272 54.5972 56.9835 54.5181 56.6043 54.5181C56.0591 54.5181 55.5929 54.692 55.2057 55.0396C54.8265 55.3873 54.6092 55.8693 54.5539 56.4855H58.6546ZM62.2708 54.767C62.4605 54.3957 62.7291 54.1073 63.0768 53.9018C63.4323 53.6964 63.8629 53.5937 64.3686 53.5937V54.7078H64.0842C62.8753 54.7078 62.2708 55.3636 62.2708 56.6752V60.207H61.1923V53.7122H62.2708V54.767Z" fill="#969EBA"/>
</svg>
