<svg width="93" height="93" viewBox="0 0 93 93" fill="none" xmlns="http://www.w3.org/2000/svg">
<rect width="93" height="93" rx="18" fill="#D6FFDE"/>
<path d="M41.125 59.0417C41.125 60.3854 40.7487 61.6575 40.0858 62.7325C38.8495 64.8108 36.5741 66.2083 33.9583 66.2083C31.3425 66.2083 29.067 64.8108 27.8308 62.7325C27.1679 61.6575 26.7916 60.3854 26.7916 59.0417C26.7916 55.0821 29.9987 51.875 33.9583 51.875C37.9179 51.875 41.125 55.0821 41.125 59.0417Z" stroke="#292D32" stroke-width="2.6875" stroke-miterlimit="10" stroke-linecap="round" stroke-linejoin="round"/>
<path d="M31.1659 59.041L32.9396 60.8147L36.7559 57.2852" stroke="#292D32" stroke-width="2.6875" stroke-linecap="round" stroke-linejoin="round"/>
<path d="M56.8046 37.6314C56.3746 37.5597 55.9266 37.5418 55.4608 37.5418H37.5441C37.0425 37.5418 36.5587 37.5776 36.0929 37.6493C36.3437 37.1476 36.7021 36.6818 37.1321 36.2518L42.955 30.411C45.4096 27.9743 49.3871 27.9743 51.8416 30.411L54.9771 33.5822C56.1237 34.7109 56.7329 36.1443 56.8046 37.6314Z" stroke="#292D32" stroke-width="2.6875" stroke-linecap="round" stroke-linejoin="round"/>
<path d="M64.4167 46.4998V55.4582C64.4167 60.8332 60.8334 64.4165 55.4584 64.4165H38.6705C39.2259 63.9507 39.7096 63.3773 40.0859 62.7323C40.7488 61.6573 41.125 60.3853 41.125 59.0415C41.125 55.0819 37.918 51.8748 33.9584 51.8748C31.8084 51.8748 29.8913 52.8244 28.5834 54.3115V46.4998C28.5834 41.6265 31.5217 38.2223 36.0905 37.649C36.5563 37.5773 37.04 37.5415 37.5417 37.5415H55.4584C55.9242 37.5415 56.3721 37.5594 56.8021 37.6311C61.4246 38.1686 64.4167 41.5907 64.4167 46.4998Z" stroke="#292D32" stroke-width="2.6875" stroke-linecap="round" stroke-linejoin="round"/>
<path d="M64.4167 47.396H59.0417C57.0709 47.396 55.4584 49.0085 55.4584 50.9793C55.4584 52.9502 57.0709 54.5627 59.0417 54.5627H64.4167" stroke="#292D32" stroke-width="2.6875" stroke-linecap="round" stroke-linejoin="round"/>
</svg>
