<svg width="21" height="21" viewBox="0 0 21 21" fill="none" xmlns="http://www.w3.org/2000/svg">
<path d="M1.93945 7.49023H9.98178" stroke="#0A0A0B" stroke-width="1.26984" stroke-miterlimit="10" stroke-linecap="round" stroke-linejoin="round"/>
<path d="M5.32617 14.2637H7.01929" stroke="#0A0A0B" stroke-width="1.26984" stroke-miterlimit="10" stroke-linecap="round" stroke-linejoin="round"/>
<path d="M9.13477 14.2637H12.521" stroke="#0A0A0B" stroke-width="1.26984" stroke-miterlimit="10" stroke-linecap="round" stroke-linejoin="round"/>
<path d="M18.8707 10.479V13.9329C18.8707 16.9044 18.1172 17.6493 15.1119 17.6493H5.69818C2.69289 17.6493 1.93945 16.9044 1.93945 13.9329V6.97421C1.93945 4.00279 2.69289 3.25781 5.69818 3.25781H12.5215" stroke="#0A0A0B" stroke-width="1.26984" stroke-linecap="round" stroke-linejoin="round"/>
<path d="M16.4002 3.78981L13.2594 6.93055C13.1409 7.04907 13.0224 7.28611 12.997 7.45542L12.8277 8.65754C12.7684 9.08928 13.0732 9.39405 13.5049 9.33479L14.707 9.16547C14.8764 9.14008 15.1134 9.02156 15.2319 8.90304L18.3727 5.7623C18.9145 5.2205 19.1684 4.59405 18.3727 3.79828C17.5684 2.99405 16.942 3.24801 16.4002 3.78981Z" stroke="#0A0A0B" stroke-width="1.26984" stroke-miterlimit="10" stroke-linecap="round" stroke-linejoin="round"/>
<path d="M15.9512 4.24023C16.2221 5.19685 16.967 5.94182 17.9152 6.20426" stroke="#0A0A0B" stroke-width="1.26984" stroke-miterlimit="10" stroke-linecap="round" stroke-linejoin="round"/>
</svg>
