<svg width="93" height="93" viewBox="0 0 93 93" fill="none" xmlns="http://www.w3.org/2000/svg">
<rect width="93" height="93" rx="18" fill="#D6FFDE"/>
<path d="M44.2633 55.2081V58.8453C44.2633 61.9269 41.3966 64.4173 37.867 64.4173C34.3374 64.4173 31.4528 61.9269 31.4528 58.8453V55.2081C31.4528 58.2898 34.3195 60.4756 37.867 60.4756C41.3966 60.4756 44.2633 58.2719 44.2633 55.2081Z" stroke="#292D32" stroke-width="2.6875" stroke-linecap="round" stroke-linejoin="round"/>
<path d="M44.2604 50.2804C44.2604 51.1762 44.0096 52.0004 43.5796 52.717C42.5225 54.4549 40.3546 55.5479 37.8462 55.5479C35.3379 55.5479 33.1699 54.437 32.1129 52.717C31.6829 52.0004 31.4321 51.1762 31.4321 50.2804C31.4321 48.7396 32.1488 47.36 33.2954 46.3566C34.46 45.3354 36.0545 44.7263 37.8283 44.7263C39.602 44.7263 41.1967 45.3533 42.3613 46.3566C43.5438 47.342 44.2604 48.7396 44.2604 50.2804Z" stroke="#292D32" stroke-width="2.6875" stroke-linecap="round" stroke-linejoin="round"/>
<path d="M44.2633 50.2804V55.2075C44.2633 58.2891 41.3966 60.475 37.867 60.475C34.3374 60.475 31.4528 58.2712 31.4528 55.2075V50.2804C31.4528 47.1987 34.3195 44.7083 37.867 44.7083C39.6407 44.7083 41.2354 45.3354 42.4 46.3387C43.5466 47.342 44.2633 48.7396 44.2633 50.2804Z" stroke="#292D32" stroke-width="2.6875" stroke-linecap="round" stroke-linejoin="round"/>
<path d="M64.4167 44.6545V48.3455C64.4167 49.3309 63.6284 50.1371 62.6251 50.1729H59.1133C57.1783 50.1729 55.4046 48.7575 55.2434 46.8225C55.1359 45.6937 55.5659 44.6366 56.3184 43.9021C56.9813 43.2212 57.895 42.8271 58.8984 42.8271H62.6251C63.6284 42.8629 64.4167 43.6691 64.4167 44.6545Z" stroke="#292D32" stroke-width="2.6875" stroke-linecap="round" stroke-linejoin="round"/>
<path d="M28.5833 43.8125V40.2292C28.5833 35.3558 31.5217 31.9517 36.0904 31.3783C36.5563 31.3067 37.04 31.2708 37.5417 31.2708H53.6667C54.1325 31.2708 54.5804 31.2887 55.0104 31.3604C59.6329 31.8979 62.625 35.32 62.625 40.2292V42.8271H58.8983C57.895 42.8271 56.9812 43.2212 56.3183 43.9021C55.5658 44.6366 55.1358 45.6937 55.2433 46.8225C55.4046 48.7575 57.1783 50.1729 59.1133 50.1729H62.625V52.7708C62.625 58.1458 59.0417 61.7292 53.6667 61.7292H49.1875" stroke="#292D32" stroke-width="2.6875" stroke-linecap="round" stroke-linejoin="round"/>
</svg>
