<svg width="93" height="93" viewBox="0 0 93 93" fill="none" xmlns="http://www.w3.org/2000/svg">
<rect width="93" height="93" rx="18" fill="#D6FFDE"/>
<path d="M57.25 37.8283C57.1425 37.8104 57.0171 37.8104 56.9096 37.8283C54.4371 37.7388 52.4663 35.7142 52.4663 33.2058C52.4663 30.6437 54.5267 28.5833 57.0887 28.5833C59.6508 28.5833 61.7112 30.6617 61.7112 33.2058C61.6933 35.7142 59.7225 37.7388 57.25 37.8283Z" stroke="#292D32" stroke-width="2.6875" stroke-linecap="round" stroke-linejoin="round"/>
<path d="M55.4046 50.8717C57.8592 51.2838 60.5646 50.8538 62.4638 49.5817C64.99 47.8975 64.99 45.1383 62.4638 43.4542C60.5467 42.1821 57.8054 41.7521 55.3508 42.1821" stroke="#292D32" stroke-width="2.6875" stroke-linecap="round" stroke-linejoin="round"/>
<path d="M35.6963 37.8283C35.8038 37.8104 35.9292 37.8104 36.0367 37.8283C38.5092 37.7388 40.48 35.7142 40.48 33.2058C40.48 30.6437 38.4196 28.5833 35.8575 28.5833C33.2954 28.5833 31.235 30.6617 31.235 33.2058C31.2529 35.7142 33.2238 37.7388 35.6963 37.8283Z" stroke="#292D32" stroke-width="2.6875" stroke-linecap="round" stroke-linejoin="round"/>
<path d="M37.5417 50.8717C35.0871 51.2838 32.3817 50.8538 30.4825 49.5817C27.9563 47.8975 27.9563 45.1383 30.4825 43.4542C32.3996 42.1821 35.1408 41.7521 37.5954 42.1821" stroke="#292D32" stroke-width="2.6875" stroke-linecap="round" stroke-linejoin="round"/>
<path d="M46.5 51.2121C46.3925 51.1942 46.2671 51.1942 46.1596 51.2121C43.6871 51.1225 41.7163 49.0979 41.7163 46.5896C41.7163 44.0275 43.7767 41.9671 46.3387 41.9671C48.9008 41.9671 50.9613 44.0454 50.9613 46.5896C50.9433 49.0979 48.9725 51.1404 46.5 51.2121Z" stroke="#292D32" stroke-width="2.6875" stroke-linecap="round" stroke-linejoin="round"/>
<path d="M41.2863 56.8558C38.76 58.54 38.76 61.2992 41.2863 62.9833C44.1529 64.9004 48.8471 64.9004 51.7137 62.9833C54.24 61.2992 54.24 58.54 51.7137 56.8558C48.865 54.9567 44.1529 54.9567 41.2863 56.8558Z" stroke="#292D32" stroke-width="2.6875" stroke-linecap="round" stroke-linejoin="round"/>
</svg>
