<svg width="24" height="24" viewBox="0 0 24 24" fill="none" xmlns="http://www.w3.org/2000/svg">
<g id="vuesax/linear/menu">
<g id="menu">
<g id="Group">
<path id="Vector" d="M17.5399 8.31063C18.8986 8.31063 20 7.20925 20 5.85062C20 4.492 18.8986 3.39062 17.5399 3.39062C16.1813 3.39062 15.08 4.492 15.08 5.85062C15.08 7.20925 16.1813 8.31063 17.5399 8.31063Z" stroke="#292D32" stroke-width="1.5" stroke-miterlimit="10" stroke-linecap="round" stroke-linejoin="round"/>
<path id="Vector_2" d="M6.46001 8.31063C7.81863 8.31063 8.92 7.20925 8.92 5.85062C8.92 4.492 7.81863 3.39062 6.46001 3.39062C5.10139 3.39062 4 4.492 4 5.85062C4 7.20925 5.10139 8.31063 6.46001 8.31063Z" stroke="#292D32" stroke-width="1.5" stroke-miterlimit="10" stroke-linecap="round" stroke-linejoin="round"/>
<path id="Vector_3" d="M17.5399 20.6114C18.8986 20.6114 20 19.51 20 18.1514C20 16.7928 18.8986 15.6914 17.5399 15.6914C16.1813 15.6914 15.08 16.7928 15.08 18.1514C15.08 19.51 16.1813 20.6114 17.5399 20.6114Z" stroke="#292D32" stroke-width="1.5" stroke-miterlimit="10" stroke-linecap="round" stroke-linejoin="round"/>
<path id="Vector_4" d="M6.46001 20.6114C7.81863 20.6114 8.92 19.51 8.92 18.1514C8.92 16.7928 7.81863 15.6914 6.46001 15.6914C5.10139 15.6914 4 16.7928 4 18.1514C4 19.51 5.10139 20.6114 6.46001 20.6114Z" stroke="#292D32" stroke-width="1.5" stroke-miterlimit="10" stroke-linecap="round" stroke-linejoin="round"/>
</g>
</g>
</g>
</svg>
