<svg width="21" height="21" viewBox="0 0 21 21" fill="none" xmlns="http://www.w3.org/2000/svg">
<path d="M1.94336 9.89272V8.1996C1.94336 5.23664 3.63648 3.9668 6.17616 3.9668H14.6418C17.1815 3.9668 18.8746 5.23664 18.8746 8.1996V13.279C18.8746 16.2419 17.1815 17.5118 14.6418 17.5118H10.409" stroke="#0A0A0B" stroke-width="1.26984" stroke-miterlimit="10" stroke-linecap="round" stroke-linejoin="round"/>
<path d="M10.4094 12.8559C11.5782 12.8559 12.5258 11.9083 12.5258 10.7394C12.5258 9.57059 11.5782 8.62305 10.4094 8.62305C9.24051 8.62305 8.29297 9.57059 8.29297 10.7394C8.29297 11.9083 9.24051 12.8559 10.4094 12.8559Z" stroke="#0A0A0B" stroke-width="1.26984" stroke-miterlimit="10" stroke-linecap="round" stroke-linejoin="round"/>
<path d="M15.9121 8.62305V12.8559" stroke="#0A0A0B" stroke-width="1.26984" stroke-miterlimit="10" stroke-linecap="round" stroke-linejoin="round"/>
<path d="M1.94336 13.7012H6.46402C7.00582 13.7012 7.446 14.1414 7.446 14.6832V15.7668" stroke="#0A0A0B" stroke-width="1.26984" stroke-miterlimit="10" stroke-linecap="round" stroke-linejoin="round"/>
<path d="M2.97614 12.668L1.94336 13.7007L2.97614 14.7335" stroke="#0A0A0B" stroke-width="1.26984" stroke-miterlimit="10" stroke-linecap="round" stroke-linejoin="round"/>
<path d="M7.446 18.1711H2.92535C2.38355 18.1711 1.94336 17.7308 1.94336 17.189V16.1055" stroke="#0A0A0B" stroke-width="1.26984" stroke-miterlimit="10" stroke-linecap="round" stroke-linejoin="round"/>
<path d="M6.41406 19.2043L7.44684 18.1715L6.41406 17.1387" stroke="#0A0A0B" stroke-width="1.26984" stroke-miterlimit="10" stroke-linecap="round" stroke-linejoin="round"/>
</svg>
