<svg width="93" height="93" viewBox="0 0 93 93" fill="none" xmlns="http://www.w3.org/2000/svg">
<rect width="93" height="93" rx="18" fill="#D6FFDE"/>
<path d="M40.5371 50.6741C40.5371 52.9854 42.3109 54.8487 44.5146 54.8487H49.0117C50.9288 54.8487 52.4875 53.2183 52.4875 51.2116C52.4875 49.0258 51.5379 48.2554 50.1225 47.7537L42.9021 45.2454C41.4867 44.7437 40.5371 43.9733 40.5371 41.7875C40.5371 39.7808 42.0959 38.1504 44.0129 38.1504H48.51C50.7138 38.1504 52.4875 40.0137 52.4875 42.325" stroke="#292D32" stroke-width="2.6875" stroke-linecap="round" stroke-linejoin="round"/>
<path d="M46.5 35.75V57.25" stroke="#292D32" stroke-width="2.6875" stroke-linecap="round" stroke-linejoin="round"/>
<path d="M51.875 64.4168H41.125C32.1667 64.4168 28.5834 60.8335 28.5834 51.8752V41.1252C28.5834 32.1668 32.1667 28.5835 41.125 28.5835H51.875C60.8334 28.5835 64.4167 32.1668 64.4167 41.1252V51.8752C64.4167 60.8335 60.8334 64.4168 51.875 64.4168Z" stroke="#292D32" stroke-width="2.6875" stroke-linecap="round" stroke-linejoin="round"/>
</svg>
