<svg width="93" height="93" viewBox="0 0 93 93" fill="none" xmlns="http://www.w3.org/2000/svg">
<rect width="93" height="93" rx="18" fill="#D6FFDE"/>
<path d="M40.3547 52.3586L52.0722 40.6411" stroke="#292D32" stroke-width="2.6875" stroke-linecap="round" stroke-linejoin="round"/>
<path d="M41.0891 43.5798C42.3062 43.5798 43.2929 42.5932 43.2929 41.3761C43.2929 40.159 42.3062 39.1724 41.0891 39.1724C39.872 39.1724 38.8854 40.159 38.8854 41.3761C38.8854 42.5932 39.872 43.5798 41.0891 43.5798Z" stroke="#292D32" stroke-width="2.6875" stroke-linecap="round" stroke-linejoin="round"/>
<path d="M52.8067 53.8279C54.0238 53.8279 55.0105 52.8412 55.0105 51.6241C55.0105 50.407 54.0238 49.4204 52.8067 49.4204C51.5896 49.4204 50.603 50.407 50.603 51.6241C50.603 52.8412 51.5896 53.8279 52.8067 53.8279Z" stroke="#292D32" stroke-width="2.6875" stroke-linecap="round" stroke-linejoin="round"/>
<path d="M46.5 64.4168C56.3951 64.4168 64.4167 56.3953 64.4167 46.5002C64.4167 36.6051 56.3951 28.5835 46.5 28.5835C36.6049 28.5835 28.5834 36.6051 28.5834 46.5002C28.5834 56.3953 36.6049 64.4168 46.5 64.4168Z" stroke="#292D32" stroke-width="2.6875" stroke-linecap="round" stroke-linejoin="round"/>
</svg>
