<svg width="21" height="21" viewBox="0 0 21 21" fill="none" xmlns="http://www.w3.org/2000/svg">
<path d="M15.4869 6.49912C15.4361 6.49065 15.3768 6.49065 15.326 6.49912C14.1578 6.45679 13.2266 5.50017 13.2266 4.31499C13.2266 3.10441 14.2001 2.13086 15.4107 2.13086C16.6213 2.13086 17.5948 3.11287 17.5948 4.31499C17.5863 5.50017 16.6551 6.45679 15.4869 6.49912Z" stroke="#0A0A0B" stroke-width="1.26984" stroke-linecap="round" stroke-linejoin="round"/>
<path d="M14.6152 12.6626C15.775 12.8573 17.0533 12.6541 17.9507 12.0531C19.1443 11.2573 19.1443 9.95362 17.9507 9.15785C17.0449 8.5568 15.7496 8.35362 14.5898 8.55679" stroke="#0A0A0B" stroke-width="1.26984" stroke-linecap="round" stroke-linejoin="round"/>
<path d="M5.3013 6.49912C5.35209 6.49065 5.41135 6.49065 5.46214 6.49912C6.6304 6.45679 7.56161 5.50017 7.56161 4.31499C7.56161 3.10441 6.58807 2.13086 5.37749 2.13086C4.16691 2.13086 3.19336 3.11287 3.19336 4.31499C3.20182 5.50017 4.13304 6.45679 5.3013 6.49912Z" stroke="#0A0A0B" stroke-width="1.26984" stroke-linecap="round" stroke-linejoin="round"/>
<path d="M6.17405 12.6626C5.01426 12.8573 3.73595 12.6541 2.8386 12.0531C1.64495 11.2573 1.64495 9.95362 2.8386 9.15785C3.74442 8.5568 5.03965 8.35362 6.19944 8.55679" stroke="#0A0A0B" stroke-width="1.26984" stroke-linecap="round" stroke-linejoin="round"/>
<path d="M10.4088 12.8233C10.358 12.8149 10.2987 12.8149 10.2479 12.8233C9.07965 12.781 8.14844 11.8244 8.14844 10.6392C8.14844 9.42862 9.12198 8.45508 10.3326 8.45508C11.5431 8.45508 12.5167 9.43709 12.5167 10.6392C12.5082 11.8244 11.577 12.7895 10.4088 12.8233Z" stroke="#0A0A0B" stroke-width="1.26984" stroke-linecap="round" stroke-linejoin="round"/>
<path d="M7.94602 15.4914C6.75237 16.2871 6.75237 17.5908 7.94602 18.3866C9.30052 19.2924 11.5185 19.2924 12.873 18.3866C14.0667 17.5908 14.0667 16.2871 12.873 15.4914C11.527 14.594 9.30052 14.594 7.94602 15.4914Z" stroke="#0A0A0B" stroke-width="1.26984" stroke-linecap="round" stroke-linejoin="round"/>
</svg>
