<svg width="21" height="21" viewBox="0 0 21 21" fill="none" xmlns="http://www.w3.org/2000/svg">
<path d="M10.7496 9.64962C10.665 9.64115 10.5634 9.64115 10.4703 9.64962C8.45547 9.58189 6.85547 7.9311 6.85547 5.89936C6.85547 3.82528 8.53166 2.14062 10.6142 2.14062C12.6883 2.14062 14.3729 3.82528 14.3729 5.89936C14.3645 7.9311 12.7645 9.58189 10.7496 9.64962Z" stroke="#0A0A0B" stroke-width="1.26984" stroke-linecap="round" stroke-linejoin="round"/>
<path d="M6.51698 12.7732C4.4683 14.1447 4.4683 16.3796 6.51698 17.7425C8.84502 19.3002 12.663 19.3002 14.9911 17.7425C17.0397 16.3711 17.0397 14.1362 14.9911 12.7732C12.6715 11.224 8.85348 11.224 6.51698 12.7732Z" stroke="#0A0A0B" stroke-width="1.26984" stroke-linecap="round" stroke-linejoin="round"/>
</svg>
