<svg width="21" height="22" viewBox="0 0 21 22" fill="none" xmlns="http://www.w3.org/2000/svg">
<path d="M12.9487 2.41602V10.8816C12.9487 11.8128 12.1867 12.5747 11.2555 12.5747H1.94336V7.17368C2.56135 7.91019 3.50952 8.36734 4.55926 8.34194C5.41428 8.32501 6.18463 7.99485 6.76029 7.44459C7.02273 7.22448 7.24285 6.94511 7.41216 6.64035C7.71692 6.12394 7.88622 5.51441 7.86929 4.87948C7.84389 3.88901 7.40369 3.01707 6.71797 2.41602H12.9487Z" stroke="#0A0A0B" stroke-width="1.26984" stroke-linecap="round" stroke-linejoin="round"/>
<path d="M18.8746 12.5741V15.1138C18.8746 16.5191 17.7402 17.6535 16.3349 17.6535H15.4883C15.4883 16.7223 14.7264 15.9604 13.7952 15.9604C12.864 15.9604 12.1021 16.7223 12.1021 17.6535H8.71585C8.71585 16.7223 7.95394 15.9604 7.02272 15.9604C6.09151 15.9604 5.3296 16.7223 5.3296 17.6535H4.48304C3.07775 17.6535 1.94336 16.5191 1.94336 15.1138V12.5741H11.2555C12.1867 12.5741 12.9487 11.8122 12.9487 10.881V4.95508H14.5063C15.1159 4.95508 15.6746 5.28525 15.9794 5.81011L17.4269 8.34132H16.3349C15.8693 8.34132 15.4883 8.72227 15.4883 9.18788V11.7276C15.4883 12.1932 15.8693 12.5741 16.3349 12.5741H18.8746Z" stroke="#0A0A0B" stroke-width="1.26984" stroke-linecap="round" stroke-linejoin="round"/>
<path d="M7.0232 19.3472C7.95829 19.3472 8.71632 18.5891 8.71632 17.6541C8.71632 16.719 7.95829 15.9609 7.0232 15.9609C6.08811 15.9609 5.33008 16.719 5.33008 17.6541C5.33008 18.5891 6.08811 19.3472 7.0232 19.3472Z" stroke="#0A0A0B" stroke-width="1.26984" stroke-linecap="round" stroke-linejoin="round"/>
<path d="M13.7947 19.3472C14.7298 19.3472 15.4878 18.5891 15.4878 17.6541C15.4878 16.719 14.7298 15.9609 13.7947 15.9609C12.8596 15.9609 12.1016 16.719 12.1016 17.6541C12.1016 18.5891 12.8596 19.3472 13.7947 19.3472Z" stroke="#0A0A0B" stroke-width="1.26984" stroke-linecap="round" stroke-linejoin="round"/>
<path d="M18.8745 10.8815V12.5746H16.3348C15.8692 12.5746 15.4883 12.1936 15.4883 11.728V9.18836C15.4883 8.72275 15.8692 8.3418 16.3348 8.3418H17.4269L18.8745 10.8815Z" stroke="#0A0A0B" stroke-width="1.26984" stroke-linecap="round" stroke-linejoin="round"/>
<path d="M7.87014 4.95656C7.87014 5.97243 7.42148 6.87825 6.71883 7.49624C6.11777 8.02111 5.33893 8.3428 4.4839 8.3428C2.613 8.3428 1.09766 6.82746 1.09766 4.95656C1.09766 3.88989 1.58866 2.93328 2.3675 2.31529C2.95162 1.84968 3.68813 1.57031 4.4839 1.57031C6.3548 1.57031 7.87014 3.08566 7.87014 4.95656Z" stroke="#0A0A0B" stroke-width="1.26984" stroke-miterlimit="10" stroke-linecap="round" stroke-linejoin="round"/>
<path d="M4.69492 3.89844V5.16828L3.63672 5.8032" stroke="#0A0A0B" stroke-width="1.26984" stroke-miterlimit="10" stroke-linecap="round" stroke-linejoin="round"/>
</svg>
