<svg width="70" height="70" viewBox="0 0 70 70" fill="none" xmlns="http://www.w3.org/2000/svg">
<path d="M67.0831 52.2382C67.1415 54.4257 66.5581 56.4965 65.5081 58.2757C64.9248 59.3257 64.1373 60.2883 63.2623 61.0758C61.2498 62.9424 58.5956 64.0799 55.6498 64.1674C51.3914 64.2549 47.629 62.0675 45.5581 58.7133C44.4498 56.9925 43.779 54.9217 43.7498 52.7342C43.6623 49.0592 45.2956 45.7341 47.9206 43.5466C49.904 41.9132 52.4123 40.8924 55.154 40.8341C61.5998 40.6883 66.9373 45.7924 67.0831 52.2382Z" stroke="#0A0A0B" stroke-width="4.375" stroke-miterlimit="10" stroke-linecap="round" stroke-linejoin="round"/>
<path d="M50.8665 52.5879L53.8123 55.3878L59.9081 49.4961" stroke="#0A0A0B" stroke-width="4.375" stroke-linecap="round" stroke-linejoin="round"/>
<path d="M9.24609 21.7021L35.0002 36.6063L60.5794 21.7896" stroke="#0A0A0B" stroke-width="4.375" stroke-linecap="round" stroke-linejoin="round"/>
<path d="M35.0001 63.0304V36.5762" stroke="#0A0A0B" stroke-width="4.375" stroke-linecap="round" stroke-linejoin="round"/>
<path d="M63.0292 26.7465V43.2549C63.0292 43.4008 63.0293 43.5173 63.0001 43.6631C60.9584 41.884 58.3334 40.834 55.4167 40.834C52.6751 40.834 50.1376 41.7966 48.1251 43.4007C45.4417 45.5299 43.7501 48.8257 43.7501 52.5007C43.7501 54.6882 44.3625 56.759 45.4417 58.509C45.7042 58.9757 46.0251 59.4132 46.3751 59.8216L41.0376 62.7674C37.7126 64.6341 32.2876 64.6341 28.9626 62.7674L13.3876 54.134C9.85839 52.1799 6.97095 47.2799 6.97095 43.2549V26.7465C6.97095 22.7215 9.85839 17.8215 13.3876 15.8674L28.9626 7.23398C32.2876 5.36732 37.7126 5.36732 41.0376 7.23398L56.6126 15.8674C60.1418 17.8215 63.0292 22.7215 63.0292 26.7465Z" stroke="#0A0A0B" stroke-width="4.375" stroke-linecap="round" stroke-linejoin="round"/>
</svg>
