<svg width="70" height="70" viewBox="0 0 70 70" fill="none" xmlns="http://www.w3.org/2000/svg">
<path d="M43.75 5.83301V34.9997C43.75 38.208 41.125 40.833 37.9167 40.833H5.83337V22.2247C7.96254 24.7622 11.2293 26.3372 14.846 26.2497C17.7918 26.1913 20.4459 25.0538 22.4292 23.158C23.3334 22.3997 24.0918 21.4371 24.6751 20.3871C25.7251 18.608 26.3084 16.5079 26.25 14.3204C26.1625 10.9079 24.6459 7.90384 22.2834 5.83301H43.75Z" stroke="#0A0A0B" stroke-width="4.375" stroke-linecap="round" stroke-linejoin="round"/>
<path d="M64.1667 40.833V49.583C64.1667 54.4247 60.2584 58.333 55.4167 58.333H52.5C52.5 55.1247 49.875 52.4997 46.6667 52.4997C43.4584 52.4997 40.8334 55.1247 40.8334 58.333H29.1667C29.1667 55.1247 26.5417 52.4997 23.3334 52.4997C20.125 52.4997 17.5 55.1247 17.5 58.333H14.5834C9.74171 58.333 5.83337 54.4247 5.83337 49.583V40.833H37.9167C41.125 40.833 43.75 38.208 43.75 34.9997V14.583H49.1168C51.2168 14.583 53.1418 15.7205 54.1918 17.5289L59.1791 26.2497H55.4167C53.8125 26.2497 52.5 27.5622 52.5 29.1663V37.9163C52.5 39.5205 53.8125 40.833 55.4167 40.833H64.1667Z" stroke="#0A0A0B" stroke-width="4.375" stroke-linecap="round" stroke-linejoin="round"/>
<path d="M23.3333 64.1667C26.555 64.1667 29.1667 61.555 29.1667 58.3333C29.1667 55.1117 26.555 52.5 23.3333 52.5C20.1117 52.5 17.5 55.1117 17.5 58.3333C17.5 61.555 20.1117 64.1667 23.3333 64.1667Z" stroke="#0A0A0B" stroke-width="4.375" stroke-linecap="round" stroke-linejoin="round"/>
<path d="M46.6667 64.1667C49.8884 64.1667 52.5 61.555 52.5 58.3333C52.5 55.1117 49.8884 52.5 46.6667 52.5C43.445 52.5 40.8334 55.1117 40.8334 58.3333C40.8334 61.555 43.445 64.1667 46.6667 64.1667Z" stroke="#0A0A0B" stroke-width="4.375" stroke-linecap="round" stroke-linejoin="round"/>
<path d="M64.1667 35V40.8333H55.4167C53.8125 40.8333 52.5 39.5208 52.5 37.9167V29.1667C52.5 27.5625 53.8125 26.25 55.4167 26.25H59.1791L64.1667 35Z" stroke="#0A0A0B" stroke-width="4.375" stroke-linecap="round" stroke-linejoin="round"/>
<path d="M26.2501 14.5827C26.2501 18.0827 24.7043 21.2035 22.2835 23.3327C20.2126 25.141 17.5292 26.2493 14.5834 26.2493C8.13758 26.2493 2.91675 21.0285 2.91675 14.5827C2.91675 10.9077 4.60841 7.61186 7.29175 5.4827C9.30425 3.87853 11.8417 2.91602 14.5834 2.91602C21.0292 2.91602 26.2501 8.13685 26.2501 14.5827Z" stroke="#0A0A0B" stroke-width="4.375" stroke-miterlimit="10" stroke-linecap="round" stroke-linejoin="round"/>
<path d="M15.3126 10.9365V15.3115L11.6667 17.499" stroke="#0A0A0B" stroke-width="4.375" stroke-miterlimit="10" stroke-linecap="round" stroke-linejoin="round"/>
</svg>
